<svg height='100px' width='100px'  fill="#A2A2A2" xmlns="http://www.w3.org/2000/svg" xmlns:xlink="http://www.w3.org/1999/xlink" version="1.1" x="0px" y="0px" viewBox="0 0 64 64" style="enable-background:new 0 0 64 64;" xml:space="preserve"><g><rect x="49" y="45" width="2" height="2"></rect><rect x="41" y="45" width="2" height="2"></rect><rect x="45" y="45" width="2" height="2"></rect><path d="M46,7c-6.065,0-11,4.935-11,11s4.935,11,11,11s11-4.935,11-11S52.065,7,46,7z M46,27c-4.962,0-9-4.038-9-9s4.038-9,9-9   s9,4.038,9,9S50.962,27,46,27z"></path><path d="M63,21.729v-7.459l-2.734-0.876c-0.248-0.772-0.556-1.519-0.919-2.229l1.312-2.549l-5.274-5.274l-2.549,1.312   c-0.71-0.363-1.457-0.671-2.229-0.919L49.729,1h-7.459l-0.876,2.734c-0.772,0.248-1.519,0.556-2.229,0.919l-2.549-1.312   l-5.274,5.274L32.568,11H6c-2.757,0-5,2.243-5,5v30c0,2.757,2.243,5,5,5h12.963c-0.168,1.595-0.997,3.041-2.296,4H14   c-1.654,0-3,1.346-3,3v2c0,1.654,1.346,3,3,3h30c1.654,0,3-1.346,3-3v-2c0-1.654-1.346-3-3-3h-2.666   c-1.299-0.959-2.128-2.405-2.296-4H52c2.757,0,5-2.243,5-5V31.042l3.658-3.658l-1.312-2.548c0.363-0.709,0.67-1.456,0.919-2.229   L63,21.729z M45,58v2c0,0.552-0.449,1-1,1H14c-0.551,0-1-0.448-1-1v-2c0-0.552,0.449-1,1-1h30C44.551,57,45,57.448,45,58z    M38.529,55H19.471c0.858-1.155,1.378-2.536,1.492-4h16.075C37.152,52.464,37.672,53.845,38.529,55z M52,49H6c-1.654,0-3-1.346-3-3   V16c0-1.654,1.346-3,3-3h25.879c-0.047,0.132-0.101,0.26-0.144,0.394L29,14.271V15H7c-1.103,0-2,0.897-2,2v24c0,1.103,0.897,2,2,2   h44c1.103,0,2-0.897,2-2v-9.568l2,1.029V46C55,47.654,53.654,49,52,49z M36.616,32.658l2.549-1.312   c0.71,0.363,1.457,0.671,2.229,0.919L42.271,35h7.459l0.876-2.734c0.134-0.043,0.262-0.098,0.394-0.144V41H7V17h22v4.729   l2.734,0.876c0.249,0.773,0.556,1.52,0.919,2.229l-1.312,2.548L36.616,32.658z M58.644,21.025l-0.146,0.517   c-0.279,0.988-0.667,1.928-1.153,2.795l-0.263,0.469l1.13,2.195l-3.211,3.211l-2.195-1.129l-0.468,0.262   c-0.869,0.486-1.81,0.875-2.796,1.153l-0.517,0.146L48.271,33h-4.541l-0.755-2.356l-0.517-0.146   c-0.986-0.279-1.927-0.667-2.796-1.153l-0.468-0.262l-2.195,1.129l-3.211-3.211l1.13-2.195l-0.263-0.469   c-0.486-0.867-0.874-1.808-1.153-2.795l-0.146-0.517L31,20.271v-4.541l2.356-0.755l0.146-0.517   c0.279-0.986,0.667-1.927,1.153-2.796l0.262-0.468l-1.129-2.195l3.211-3.211l2.195,1.129l0.468-0.262   c0.869-0.486,1.81-0.875,2.796-1.153l0.517-0.146L43.729,3h4.541l0.755,2.356l0.517,0.146c0.986,0.279,1.927,0.667,2.796,1.153   l0.468,0.262l2.195-1.129l3.211,3.211l-1.129,2.195l0.262,0.468c0.486,0.869,0.875,1.81,1.153,2.796l0.146,0.517L61,15.729v4.541   L58.644,21.025z"></path><path d="M46,13c-2.757,0-5,2.243-5,5s2.243,5,5,5s5-2.243,5-5S48.757,13,46,13z M46,21c-1.654,0-3-1.346-3-3s1.346-3,3-3   s3,1.346,3,3S47.654,21,46,21z"></path><path d="M24,23H12c-1.654,0-3,1.346-3,3v10c0,1.654,1.346,3,3,3h12c1.654,0,3-1.346,3-3V26C27,24.346,25.654,23,24,23z M17,25h2v2   h-2V25z M25,36c0,0.552-0.449,1-1,1H12c-0.551,0-1-0.448-1-1V26c0-0.551,0.449-1,1-1h3v4h6v-4h3c0.551,0,1,0.449,1,1V36z"></path><rect x="9" y="19" width="2" height="2"></rect><rect x="13" y="19" width="14" height="2"></rect><rect x="43" y="37" width="2" height="2"></rect><rect x="39" y="37" width="2" height="2"></rect><rect x="47" y="37" width="2" height="2"></rect></g></svg>